<svg xmlns="http://www.w3.org/2000/svg" viewBox="0 0 340 220" fill="none" class="w-full h-full">
  <!-- Golden Crescent Arc (Wrapping top, right, bottom) -->
  <path 
    d="M 124,34 
       C 172,14 242,12 288,42 
       C 328,68 340,108 335,138 
       C 328,174 294,206 242,216 
       C 186,224 142,206 124,190 
       C 148,198 190,204 232,194 
       C 278,182 308,148 310,114 
       C 312,78 282,46 234,34 
       C 188,24 148,28 124,34 Z" 
    fill="#F5A623" 
  />

  <!-- Golden Sun Disc (Behind AUSE) -->
  <circle cx="204" cy="110" r="46" fill="#F5A623" />

  <!-- Horizontal Stripe Band -->
  <g>
    <!-- Top framing bar -->
    <line x1="90" y1="64" x2="288" y2="64" stroke="#94A3B8" stroke-width="2.5" stroke-linecap="round" />
    
    <!-- 10 Interior horizontal stripes -->
    <line x1="90" y1="73" x2="288" y2="73" stroke="#64748B" stroke-width="1.8" />
    <line x1="90" y1="82" x2="288" y2="82" stroke="#64748B" stroke-width="1.8" />
    <line x1="90" y1="91" x2="288" y2="91" stroke="#64748B" stroke-width="1.8" />
    <line x1="90" y1="100" x2="288" y2="100" stroke="#64748B" stroke-width="1.8" />
    <line x1="90" y1="109" x2="288" y2="109" stroke="#64748B" stroke-width="1.8" />
    <line x1="90" y1="118" x2="288" y2="118" stroke="#64748B" stroke-width="1.8" />
    <line x1="90" y1="127" x2="288" y2="127" stroke="#64748B" stroke-width="1.8" />
    <line x1="90" y1="136" x2="288" y2="136" stroke="#64748B" stroke-width="1.8" />
    <line x1="90" y1="145" x2="288" y2="145" stroke="#64748B" stroke-width="1.8" />
    <line x1="90" y1="154" x2="288" y2="154" stroke="#64748B" stroke-width="1.8" />

    <!-- Bottom framing bar -->
    <line x1="90" y1="163" x2="288" y2="163" stroke="#94A3B8" stroke-width="2.5" stroke-linecap="round" />
  </g>

  <!-- Big Bold Letter "C" -->
  <path 
    d="M 148,64 
       A 86 86 0 1 0 148,163 
       L 115,163 
       A 51 51 0 1 1 115,64 
       Z" 
    fill="#FFFFFF" 
  />

  <!-- Letter A -->
  <path 
    d="M 102,76 
       L 124,151 
       L 107,151 
       L 102,133 
       L 87,133 
       L 82,151 
       L 66,151 
       L 89,76 
       Z
       M 95,95 
       L 90,119 
       L 99,119 
       Z" 
    fill="#FFFFFF" 
  />

  <!-- Letter U -->
  <path 
    d="M 132,76 
       L 149,76 
       L 149,124 
       C 149,133 154,137 160,137 
       C 166,137 171,133 171,124 
       L 171,76 
       L 188,76 
       L 188,124 
       C 188,143 176,151 160,151 
       C 144,151 132,143 132,124 
       Z" 
    fill="#FFFFFF" 
  />

  <!-- Bold & Highly Legible Letter S -->
  <path 
    d="M 244,98 
       L 227,98 
       C 227,92 222,88 215,88 
       C 208,88 203,91 203,96 
       C 203,103 210,107 222,110 
       C 238,114 249,121 249,134 
       C 249,145 238,151 219,151 
       C 201,151 190,143 189,129 
       L 206,129 
       C 207,136 212,140 219,140 
       C 227,140 232,136 232,131 
       C 232,124 225,120 213,116 
       C 198,112 188,105 188,94 
       C 188,83 199,76 215,76 
       C 232,76 243,84 244,98 
       Z" 
    fill="#FFFFFF" 
  />

  <!-- Letter E -->
  <path 
    d="M 256,76 
       L 292,76 
       L 292,90 
       L 274,90 
       L 274,107 
       L 289,107 
       L 289,120 
       L 274,120 
       L 274,137 
       L 293,137 
       L 293,151 
       L 256,151 
       Z" 
    fill="#FFFFFF" 
  />
</svg>